<?xml version="1.0" encoding="UTF-8"?>
<svg id="Layer_2" data-name="Layer 2" xmlns="http://www.w3.org/2000/svg" viewBox="0 0 310.92 67.56">
  <defs>
    <style>
      .cls-1 {
        fill:rgb(255, 255, 255);
      }
    </style>
  </defs>
  <g id="Layer_1-2" data-name="Layer 1">
    <g>
      <g>
        <path class="cls-1" d="M191.14,8.86h2.57v9.97h-2.57v-1.18c-.77.97-1.85,1.46-3.25,1.46s-2.47-.51-3.43-1.52c-.94-1.02-1.42-2.27-1.42-3.75s.47-2.72,1.42-3.73c.96-1.02,2.1-1.54,3.43-1.54,1.4,0,2.48.49,3.25,1.46v-1.18ZM186.4,15.88c.52.52,1.18.78,1.97.78s1.46-.26,1.97-.78c.53-.53.8-1.21.8-2.03s-.27-1.5-.8-2.01c-.52-.53-1.18-.8-1.97-.8s-1.46.27-1.97.8c-.52.52-.78,1.19-.78,2.01s.26,1.5.78,2.03Z"/>
        <path class="cls-1" d="M179.95,7.66c-.44,0-.82-.15-1.14-.46-.31-.32-.46-.69-.46-1.12s.15-.8.46-1.12c.32-.32.7-.48,1.14-.48s.79.16,1.1.48c.32.32.48.69.48,1.12s-.16.8-.48,1.12c-.31.31-.67.46-1.1.46ZM178.65,19.03v-10.17h2.57v10.17c0,1.46-.36,2.53-1.08,3.19-.7.68-1.79.97-3.27.88v-2.47c.61.04,1.06-.07,1.34-.32.29-.25.44-.68.44-1.28Z"/>
        <path class="cls-1" d="M174.25,8.86h1.91v9.97h-2.51v-5.66l-4.68,5.66h-1.91v-9.97h2.51v5.66l4.68-5.66Z"/>
        <path class="cls-1" d="M164.71,8.86v9.97h-2.49v-5.82l-2.53,3.99h-.32l-2.55-4.03v5.86h-2.47v-9.97h2.53l2.65,4.19,2.65-4.19h2.53Z"/>
        <path class="cls-1" d="M144.93,14.9c.35,1.25,1.28,1.87,2.81,1.87.98,0,1.73-.33,2.23-1l2.07,1.2c-.98,1.42-2.43,2.13-4.35,2.13-1.65,0-2.97-.5-3.97-1.5-1-1-1.5-2.25-1.5-3.77s.49-2.75,1.47-3.75c.98-1.01,2.25-1.52,3.79-1.52s2.67.51,3.61,1.52c.96,1.01,1.44,2.26,1.44,3.75,0,.33-.03.68-.1,1.06h-7.52ZM144.89,12.91h5.08c-.15-.68-.45-1.18-.92-1.52-.45-.33-.97-.5-1.55-.5-.69,0-1.26.18-1.71.54-.45.35-.75.84-.9,1.48Z"/>
        <path class="cls-1" d="M140.21,16.42h1.31v5.08h-2.51v-2.67h-6.18v2.67h-2.51v-5.08h1.22c.57-.85.86-2.03.86-3.53v-4.03h7.82v7.56ZM134.28,16.42h3.41v-5.24h-2.79v1.71c0,1.41-.21,2.59-.62,3.53Z"/>
        <path class="cls-1" d="M126.33,8.86h2.57v9.97h-2.57v-1.18c-.77.97-1.85,1.46-3.25,1.46s-2.47-.51-3.43-1.52c-.94-1.02-1.42-2.27-1.42-3.75s.47-2.72,1.42-3.73c.96-1.02,2.1-1.54,3.43-1.54,1.4,0,2.48.49,3.25,1.46v-1.18ZM121.59,15.88c.52.52,1.18.78,1.97.78s1.46-.26,1.97-.78c.53-.53.8-1.21.8-2.03s-.27-1.5-.8-2.01c-.52-.53-1.18-.8-1.97-.8s-1.46.27-1.97.8c-.52.52-.78,1.19-.78,2.01s.26,1.5.78,2.03Z"/>
        <path class="cls-1" d="M118.19,18.83h-2.99l-3.63-4.53v4.53h-2.57v-9.97h2.57v4.39l3.43-4.39h3.07l-4.01,4.92,4.13,5.04Z"/>
        <path class="cls-1" d="M104.77,18.83l-.84-2.51h-5.56l-.84,2.51h-2.97l4.88-13.96h3.41l4.9,13.96h-2.99ZM99.25,13.74h3.83l-1.91-5.7-1.91,5.7Z"/>
        <path class="cls-1" d="M310.92,40.98h-2.97l-2.15-3.03-2.17,3.03h-2.97l3.65-5.08-3.49-4.88h2.97l2.01,2.81,2.01-2.81h2.95l-3.49,4.86,3.65,5.1Z"/>
        <path class="cls-1" d="M297.46,31.01h1.91v9.97h-2.51v-5.66l-4.68,5.66h-1.91v-9.97h2.51v5.66l4.69-5.66Z"/>
        <path class="cls-1" d="M288.98,40.98h-2.99l-3.63-4.53v4.53h-2.57v-9.97h2.57v4.39l3.43-4.39h3.07l-4.01,4.92,4.13,5.04Z"/>
        <path class="cls-1" d="M274.88,31.01h2.57v9.97h-2.57v-3.17c-.75.24-1.54.36-2.37.36-1.21,0-2.18-.31-2.91-.92-.72-.61-1.08-1.5-1.08-2.67v-3.57h2.57v3.27c0,1,.62,1.5,1.85,1.5.72,0,1.36-.13,1.93-.38v-4.39Z"/>
        <path class="cls-1" d="M264.09,31.01h2.57v9.97h-2.57v-1.18c-.77.97-1.85,1.46-3.25,1.46s-2.47-.51-3.43-1.52c-.94-1.02-1.42-2.27-1.42-3.75s.47-2.72,1.42-3.73c.96-1.02,2.1-1.54,3.43-1.54,1.4,0,2.48.49,3.25,1.46v-1.18ZM259.35,38.03c.52.52,1.18.78,1.97.78s1.46-.26,1.97-.78c.53-.53.8-1.21.8-2.03s-.27-1.5-.8-2.01c-.52-.53-1.18-.8-1.97-.8s-1.45.27-1.97.8c-.52.52-.78,1.19-.78,2.01s.26,1.5.78,2.03Z"/>
        <path class="cls-1" d="M255.53,31.01v2.47h-3.11v7.5h-2.57v-7.5h-3.15v-2.47h8.83Z"/>
        <path class="cls-1" d="M243.41,31.01h1.91v9.97h-2.51v-5.66l-4.68,5.66h-1.91v-9.97h2.51v5.66l4.68-5.66Z"/>
        <path class="cls-1" d="M233.86,31.01v9.97h-2.57v-7.56h-3.97v7.56h-2.57v-9.97h9.11Z"/>
        <path class="cls-1" d="M218.8,41.26c-1.5,0-2.76-.51-3.77-1.52-1-1.01-1.5-2.26-1.5-3.75s.5-2.74,1.5-3.75c1.01-1.01,2.27-1.52,3.77-1.52.97,0,1.85.23,2.65.7.8.47,1.4,1.09,1.81,1.87l-2.21,1.3c-.2-.41-.51-.74-.92-.98-.4-.24-.85-.36-1.36-.36-.77,0-1.41.26-1.91.78-.51.51-.76,1.16-.76,1.95s.25,1.44.76,1.95c.51.51,1.14.76,1.91.76.52,0,.98-.11,1.38-.34.41-.24.72-.56.92-.98l2.23,1.28c-.44.78-1.06,1.42-1.85,1.89-.8.47-1.68.7-2.65.7Z"/>
        <path class="cls-1" d="M209.15,31.01h2.57v9.97h-2.57v-1.18c-.77.97-1.85,1.46-3.25,1.46s-2.47-.51-3.43-1.52c-.94-1.02-1.42-2.27-1.42-3.75s.47-2.72,1.42-3.73c.96-1.02,2.1-1.54,3.43-1.54s2.48.49,3.25,1.46v-1.18ZM204.41,38.03c.52.52,1.18.78,1.97.78s1.45-.26,1.97-.78c.53-.53.8-1.21.8-2.03s-.27-1.5-.8-2.01c-.52-.53-1.18-.8-1.97-.8s-1.46.27-1.97.8c-.52.52-.78,1.19-.78,2.01s.26,1.5.78,2.03Z"/>
        <path class="cls-1" d="M198.57,35.88c.93.45,1.4,1.21,1.4,2.27,0,.84-.29,1.52-.88,2.05-.57.52-1.39.78-2.45.78h-5.24v-9.97h4.84c1.05,0,1.86.26,2.43.78.59.52.88,1.2.88,2.03s-.32,1.56-.98,2.05ZM196,33.12h-2.19v1.79h2.19c.73,0,1.1-.3,1.1-.9s-.37-.9-1.1-.9ZM196.34,38.81c.75,0,1.12-.32,1.12-.96,0-.28-.1-.5-.3-.66-.2-.16-.47-.24-.82-.24h-2.53v1.85h2.53Z"/>
        <path class="cls-1" d="M181.45,36.2v-2.47h7.48v2.47h-7.48Z"/>
        <path class="cls-1" d="M177.98,39.74c-1.02,1.01-2.27,1.52-3.75,1.52s-2.73-.51-3.75-1.52c-1.01-1.02-1.52-2.27-1.52-3.75s.51-2.72,1.52-3.73c1.02-1.02,2.27-1.54,3.75-1.54s2.72.51,3.75,1.54c1.02,1.01,1.53,2.25,1.53,3.73s-.51,2.72-1.53,3.75ZM172.3,37.97c.52.52,1.16.78,1.93.78s1.42-.26,1.93-.78c.52-.52.78-1.18.78-1.97s-.26-1.46-.78-1.97c-.52-.52-1.16-.78-1.93-.78s-1.42.26-1.93.78c-.51.52-.76,1.18-.76,1.97s.25,1.46.76,1.97Z"/>
        <path class="cls-1" d="M168.93,40.98h-2.99l-3.63-4.53v4.53h-2.57v-9.97h2.57v4.39l3.43-4.39h3.07l-4.01,4.92,4.13,5.04Z"/>
        <path class="cls-1" d="M154.83,31.01h2.57v9.97h-2.57v-3.17c-.74.24-1.53.36-2.37.36-1.21,0-2.18-.31-2.91-.92-.72-.61-1.08-1.5-1.08-2.67v-3.57h2.57v3.27c0,1,.62,1.5,1.85,1.5.72,0,1.36-.13,1.93-.38v-4.39Z"/>
        <path class="cls-1" d="M144.68,31.01h1.91v9.97h-2.51v-5.66l-4.68,5.66h-1.91v-9.97h2.51v5.66l4.68-5.66Z"/>
        <path class="cls-1" d="M132.56,31.01h2.57v9.97h-2.57v-3.79h-3.97v3.79h-2.57v-9.97h2.57v3.77h3.97v-3.77Z"/>
        <path class="cls-1" d="M124.73,40.98h-2.97l-2.15-3.03-2.17,3.03h-2.97l3.65-5.08-3.49-4.88h2.97l2.01,2.81,2.01-2.81h2.95l-3.49,4.86,3.65,5.1Z"/>
        <path class="cls-1" d="M106.7,37.05c.35,1.25,1.28,1.87,2.81,1.87.98,0,1.73-.33,2.23-1l2.07,1.2c-.98,1.42-2.43,2.13-4.35,2.13-1.65,0-2.97-.5-3.97-1.5-1-1-1.5-2.25-1.5-3.77s.49-2.75,1.48-3.75c.98-1.01,2.25-1.52,3.79-1.52,1.46,0,2.66.51,3.61,1.52.96,1.01,1.44,2.26,1.44,3.75,0,.33-.03.68-.1,1.06h-7.52ZM106.66,35.06h5.08c-.15-.68-.45-1.18-.92-1.52-.45-.33-.97-.5-1.56-.5-.69,0-1.26.18-1.71.54-.45.35-.75.84-.9,1.48Z"/>
        <path class="cls-1" d="M103.54,31.01v2.47h-3.11v7.5h-2.57v-7.5h-3.15v-2.47h8.83Z"/>
        <path class="cls-1" d="M273.99,53.16h2.57v9.97h-2.57v-1.18c-.77.97-1.85,1.46-3.25,1.46s-2.47-.51-3.43-1.52c-.94-1.02-1.42-2.27-1.42-3.75s.47-2.72,1.42-3.73c.96-1.02,2.1-1.54,3.43-1.54,1.4,0,2.48.49,3.25,1.46v-1.18ZM269.24,60.18c.52.52,1.18.78,1.97.78s1.46-.26,1.97-.78c.53-.53.8-1.21.8-2.03s-.27-1.5-.8-2.01c-.52-.53-1.18-.8-1.97-.8s-1.45.27-1.97.8c-.52.52-.78,1.19-.78,2.01s.26,1.5.78,2.03Z"/>
        <path class="cls-1" d="M262.79,51.97c-.44,0-.82-.15-1.14-.46-.31-.32-.46-.69-.46-1.12s.15-.8.46-1.12c.32-.32.7-.48,1.14-.48s.79.16,1.1.48c.32.32.48.69.48,1.12s-.16.8-.48,1.12c-.3.31-.67.46-1.1.46ZM261.49,63.33v-10.17h2.57v10.17c0,1.46-.36,2.53-1.08,3.19-.7.68-1.79.97-3.27.88v-2.47c.61.04,1.06-.07,1.34-.32.29-.25.44-.68.44-1.28Z"/>
        <path class="cls-1" d="M257.1,53.16h1.91v9.97h-2.51v-5.66l-4.69,5.66h-1.91v-9.97h2.51v5.66l4.68-5.66Z"/>
        <path class="cls-1" d="M246.96,60.72h1.32v5.08h-2.51v-2.67h-6.18v2.67h-2.51v-5.08h1.22c.57-.85.86-2.03.86-3.53v-4.03h7.81v7.56ZM241.03,60.72h3.41v-5.24h-2.79v1.71c0,1.41-.21,2.59-.62,3.53Z"/>
        <path class="cls-1" d="M234.63,53.16h2.75l-3.63,9.97c-1.01,2.8-2.76,4.13-5.26,3.99v-2.39c.68.01,1.21-.11,1.6-.38.4-.27.72-.71.96-1.34l-4.03-9.85h2.73l2.67,6.7,2.21-6.7Z"/>
        <path class="cls-1" d="M226.6,53.16v2.47h-3.11v7.5h-2.57v-7.5h-3.15v-2.47h8.83Z"/>
        <path class="cls-1" d="M212.94,63.41c-1.5,0-2.76-.51-3.77-1.52-1-1.01-1.5-2.26-1.5-3.75s.5-2.74,1.5-3.75c1.01-1.01,2.27-1.52,3.77-1.52.97,0,1.85.23,2.65.7.8.47,1.4,1.09,1.81,1.87l-2.21,1.3c-.2-.41-.51-.74-.92-.98-.4-.24-.85-.36-1.36-.36-.77,0-1.41.26-1.91.78-.51.51-.76,1.16-.76,1.95s.25,1.44.76,1.95c.51.51,1.14.76,1.91.76.52,0,.98-.11,1.38-.34.41-.24.72-.56.92-.98l2.23,1.28c-.44.78-1.06,1.42-1.85,1.89-.8.47-1.68.7-2.65.7Z"/>
        <path class="cls-1" d="M201.93,63.13h-2.97l-2.15-3.03-2.17,3.03h-2.97l3.65-5.08-3.49-4.88h2.97l2.01,2.81,2.01-2.81h2.95l-3.49,4.86,3.65,5.1Z"/>
        <path class="cls-1" d="M188.47,53.16h1.91v9.97h-2.51v-5.66l-4.69,5.66h-1.91v-9.97h2.51v5.66l4.68-5.66Z"/>
        <path class="cls-1" d="M176.34,53.16h2.57v9.97h-2.57v-3.79h-3.97v3.79h-2.57v-9.97h2.57v3.77h3.97v-3.77Z"/>
        <path class="cls-1" d="M166.8,58.03c.93.45,1.4,1.21,1.4,2.27,0,.84-.29,1.52-.88,2.05-.57.52-1.39.78-2.45.78h-5.24v-9.97h4.84c1.05,0,1.86.26,2.43.78.58.52.88,1.2.88,2.03s-.33,1.56-.98,2.05ZM164.23,55.28h-2.19v1.79h2.19c.73,0,1.1-.3,1.1-.9s-.37-.9-1.1-.9ZM164.56,60.96c.74,0,1.12-.32,1.12-.96,0-.28-.1-.5-.3-.66-.2-.16-.47-.24-.82-.24h-2.53v1.85h2.53Z"/>
        <path class="cls-1" d="M156.28,61.9c-1.02,1.01-2.27,1.52-3.75,1.52s-2.73-.51-3.75-1.52c-1.01-1.02-1.52-2.27-1.52-3.75s.51-2.72,1.52-3.73c1.02-1.02,2.27-1.54,3.75-1.54s2.72.51,3.75,1.54c1.02,1.01,1.53,2.25,1.53,3.73s-.51,2.72-1.53,3.75ZM150.59,60.12c.52.52,1.16.78,1.93.78s1.42-.26,1.93-.78c.52-.52.78-1.18.78-1.97s-.26-1.46-.78-1.97c-.52-.52-1.16-.78-1.93-.78s-1.42.26-1.93.78c-.51.52-.76,1.18-.76,1.97s.25,1.46.76,1.97Z"/>
        <path class="cls-1" d="M147.22,63.13h-2.99l-3.63-4.53v4.53h-2.57v-9.97h2.57v4.39l3.43-4.39h3.07l-4.01,4.92,4.13,5.04Z"/>
        <path class="cls-1" d="M134.05,53.16h2.75l-3.63,9.97c-1.01,2.8-2.76,4.13-5.26,3.99v-2.39c.68.01,1.21-.11,1.59-.38.4-.27.72-.71.96-1.34l-4.03-9.85h2.73l2.67,6.7,2.21-6.7Z"/>
        <path class="cls-1" d="M121.27,52.88c1.34,0,2.49.51,3.43,1.54.96,1.01,1.44,2.25,1.44,3.73s-.48,2.72-1.44,3.75c-.94,1.01-2.09,1.52-3.43,1.52s-2.47-.49-3.23-1.46v5.16h-2.57v-13.96h2.57v1.18c.76-.97,1.83-1.46,3.23-1.46ZM118.81,60.18c.52.52,1.18.78,1.97.78s1.46-.26,1.97-.78c.53-.53.8-1.21.8-2.03s-.27-1.5-.8-2.01c-.52-.53-1.18-.8-1.97-.8s-1.46.27-1.97.8c-.52.52-.78,1.19-.78,2.01s.26,1.5.78,2.03Z"/>
        <path class="cls-1" d="M114.09,53.16v2.47h-3.11v7.5h-2.57v-7.5h-3.15v-2.47h8.83Z"/>
        <path class="cls-1" d="M100.43,63.41c-1.5,0-2.76-.51-3.77-1.52-1-1.01-1.5-2.26-1.5-3.75s.5-2.74,1.5-3.75c1.01-1.01,2.27-1.52,3.77-1.52.97,0,1.85.23,2.65.7.8.47,1.4,1.09,1.81,1.87l-2.21,1.3c-.2-.41-.51-.74-.92-.98-.4-.24-.85-.36-1.36-.36-.77,0-1.41.26-1.91.78-.51.51-.76,1.16-.76,1.95s.25,1.44.76,1.95c.51.51,1.14.76,1.91.76.52,0,.98-.11,1.38-.34.41-.24.72-.56.92-.98l2.23,1.28c-.44.78-1.06,1.42-1.85,1.89-.8.47-1.68.7-2.65.7Z"/>
      </g>
      <g>
        <path class="cls-1" d="M35.15,35.19l4.58-7.71,1.68,4.35c-2.03.96-4.13,2.1-6.25,3.36ZM54.26,27.21L42.15.04,10.1,67.56s14.98-16.57,34.4-27.74c4.05-2.35,8.3-4.45,12.64-6.11,9.53-3.64,19.54-5.18,28.97-2.53,0,0-11.96-8.72-31.85-3.97h0Z"/>
        <path class="cls-1" d="M72.82,67.56h0s0,0,0,0ZM76.72,31.81c-6.4-.05-13.06,1.89-18.61,4.09-4.07,1.63-8.78,3.85-12.53,6.16-2.08,1.24-3.98,2.38-5.95,3.74-2.72,1.82-8.22,5.28-10.61,7.81,0,0,6.63-4.48,17.3-9.17l9.03,22.82.12.29h17.36s-13.76-29.51-13.76-29.51c10.28-5.63,17.66-6.24,17.66-6.24h0Z"/>
        <g>
          <path class="cls-1" d="M8.65,59.46c.39,1.14.32,2.27-.21,3.38-.53,1.11-1.37,1.87-2.51,2.28-1.14.41-2.27.34-3.4-.2-1.13-.54-1.89-1.38-2.28-2.53-.4-1.14-.32-2.27.21-3.38.53-1.11,1.37-1.87,2.51-2.27,1.14-.41,2.27-.34,3.4.2,1.13.54,1.89,1.38,2.28,2.53ZM5.33,63.31c.63-.22,1.1-.65,1.4-1.29.31-.64.35-1.27.13-1.9s-.66-1.11-1.34-1.43c-.67-.32-1.32-.37-1.95-.15-.63.22-1.1.65-1.4,1.29-.31.64-.35,1.27-.13,1.9.22.63.66,1.11,1.34,1.43.67.32,1.32.37,1.95.15Z"/>
          <path class="cls-1" d="M11.73,51.28l.4-.82,3.16,1.52-.84,1.75-1.47-.71-1.85,3.84,1.47.71-.84,1.75-3.16-1.52.37-.78c-.38-.68-1.14-1.29-2.25-1.83l-3.44-1.66,2.47-5.14,5.99,2.88ZM9.87,55.16l1.02-2.13-4.34-2.09-.79,1.63,1.82.88c1.09.52,1.85,1.09,2.28,1.71Z"/>
          <path class="cls-1" d="M16.13,46.86c-.55,1.15-1.39,1.92-2.52,2.31-1.13.39-2.26.31-3.39-.23-1.13-.54-1.9-1.38-2.3-2.5-.4-1.12-.32-2.26.23-3.41.33-.69.79-1.25,1.39-1.68.6-.43,1.25-.68,1.96-.76l.15,1.93c-.38.02-.73.15-1.04.39-.32.23-.57.55-.75.93-.33.68-.38,1.32-.16,1.93.22.61.68,1.07,1.36,1.4.69.33,1.34.39,1.95.19.61-.21,1.08-.65,1.41-1.33.19-.39.27-.78.26-1.18-.01-.4-.13-.75-.34-1.05l1.6-1.09c.39.59.6,1.26.64,1.99.04.74-.11,1.45-.45,2.15Z"/>
          <path class="cls-1" d="M17.11,40.11l1.48-3.07,1.69.81-2.32,4.82-7.67-3.69,2.29-4.77,1.69.81-1.45,3.02,1.27.61,1.32-2.74,1.67.8-1.32,2.74,1.36.65Z"/>
          <path class="cls-1" d="M23.73,30.66l-.96,2-4.73.75,3.55,1.7-.84,1.75-7.67-3.69.84-1.75,3.33,1.6-2.2-3.95.96-2,2.49,4.39,5.23-.8Z"/>
          <path class="cls-1" d="M19.69,19.41l.84-1.75,7.67,3.69-.84,1.75-3.05-1.47-1.16,2.41,3.05,1.47-.84,1.75-7.67-3.69.84-1.75,2.94,1.41,1.16-2.41-2.94-1.41Z"/>
          <path class="cls-1" d="M30.9,15.75l-4.17-2,2.74,4.96-.63,1.32-7.67-3.69.84-1.75,4.17,2-2.74-4.96.63-1.32,7.68,3.69-.84,1.75Z"/>
          <path class="cls-1" d="M28.18,1.75l.84-1.75,7.67,3.69-4.32,8.99-7.67-3.69.84-1.75,5.99,2.88.9-1.86-5.99-2.88.84-1.75,5.99,2.88.9-1.86-5.99-2.88Z"/>
        </g>
      </g>
    </g>
  </g>
</svg>